<?xml version="1.0" encoding="UTF-8" standalone="no"?>
<!-- Created with Inkscape (http://www.inkscape.org/) -->

<svg
   version="1.1"
   id="svg1"
   width="1000"
   height="1000"
   viewBox="0 0 1000 1000"
   sodipodi:docname="kedara-logo-flat.svg"
   inkscape:version="1.4.2 (f4327f4, 2025-05-13)"
   xmlns:inkscape="http://www.inkscape.org/namespaces/inkscape"
   xmlns:sodipodi="http://sodipodi.sourceforge.net/DTD/sodipodi-0.dtd"
   xmlns="http://www.w3.org/2000/svg"
   xmlns:svg="http://www.w3.org/2000/svg">
  <defs
     id="defs1" />
  <sodipodi:namedview
     id="namedview1"
     pagecolor="#ffffff"
     bordercolor="#000000"
     borderopacity="0.25"
     inkscape:showpageshadow="2"
     inkscape:pageopacity="0.0"
     inkscape:pagecheckerboard="0"
     inkscape:deskcolor="#d1d1d1"
     inkscape:zoom="1.0931871"
     inkscape:cx="352.18126"
     inkscape:cy="724.94453"
     inkscape:window-width="3200"
     inkscape:window-height="1711"
     inkscape:window-x="2391"
     inkscape:window-y="-9"
     inkscape:window-maximized="1"
     inkscape:current-layer="g7034" />
  <g
     inkscape:groupmode="layer"
     inkscape:label="Image"
     id="g1">
    <g
       id="g7034"
       transform="translate(33.096627,17.516786)">
      <path
         style="display:none;fill:#ddec9f"
         d="m 287.6,519.20522 c -22.32427,-1.85203 -55.73036,-21.55767 -50.05573,-29.52695 21.76671,-30.56854 74.52569,-38.39049 101.25573,-15.012 l 3.2,2.79877 -1.02816,1.05564 -1.02816,1.05564 -11.37184,-0.24935 -11.37184,-0.24936 -6.311,1.31649 c -7.817,1.63065 -19.10528,5.65803 -21.49769,7.66985 l -1.79131,1.50635 4,-1.2252 c 21.56514,-6.60543 34.8086,-6.8036 46.90486,-0.70187 6.79103,3.42561 7.02217,4.71809 1.94638,10.88361 -13.65074,16.58142 -29.14798,22.64482 -52.85124,20.67838 z m 28.71477,-3.84763 c 8.99992,-4.21201 21.6863,-14.387 25.88599,-20.76159 l 1.1885,-1.80401 -1.04111,-1.25447 C 339.12201,487.65026 328.66002,484.8 317.61781,484.8 h -8.15123 l -6.13329,1.57264 c -3.37331,0.86496 -8.71452,2.45373 -11.86936,3.5306 -3.15484,1.07688 -5.94484,1.74919 -6.2,1.49402 -5.19019,-5.19019 26.9921,-14.60765 46.19767,-13.51876 l 8.6616,0.49109 -0.30403,-0.9848 c -0.56492,-1.82988 -11.37669,-8.54283 -17.7996,-11.05164 -27.65824,-10.8034 -56.29804,-3.25075 -80.38262,21.19784 l -5.16305,5.24108 2.3228,2.42448 c 13.72661,14.3275 37.11938,23.2636 60.0033,22.92141 l 12,-0.17943 z M 617.2,469.06115 c -20.6305,-2.5712 -50.8,-22.46482 -50.8,-33.49726 v -1.94119 l 3.05253,-2.02007 c 7.79955,-5.16149 20.54803,-7.23761 40.38086,-6.5761 l 12.96661,0.43249 6.7174,1.68642 c 7.5512,1.89576 8.89972,1.71021 4.36012,-0.59994 -13.97462,-7.11152 -32.42684,-10.26933 -51.30945,-8.78081 -14.45887,1.13979 -14.87266,-0.2164 -2.8311,-9.27906 36.5487,-27.50711 84.13953,-20.4699 126.12399,18.64984 7.4339,6.92667 7.26801,7.31118 -7.29263,16.90329 C 668.14129,464.08317 641.9309,472.1434 617.2,469.06115 Z m 25.44676,-1.92308 c 8.76464,-1.31309 14.61573,-2.96811 22.95324,-6.49248 16.47004,-6.96209 43.35585,-23.35776 43.84018,-26.73488 l 0.24017,-1.6747 -5.44017,-4.77358 C 688.12917,413.32554 666.05961,399.80759 652.8,395.95455 l -6,-1.74351 -15.2,-0.36425 -15.2,-0.36425 -7.76625,2.00409 c -11.91448,3.07454 -23.23272,9.17514 -31.97812,17.2364 -5.08902,4.69091 -5.01517,4.82879 2.14437,4.00415 19.76644,-2.27672 38.11244,0.60501 55.00188,8.63954 13.2634,6.30957 13.35887,7.96535 0.24698,4.28359 -31.1116,-8.73598 -73.1905,-2.09416 -64.20396,10.13407 16.12674,21.94409 42.57639,31.88196 72.80186,27.35369 z M 181.6,441.09157 c -16.27101,-3.07758 -45.76704,-21.09335 -62.46191,-38.15087 -7.56852,-7.73292 -7.64212,-8.28212 -1.73809,-12.96896 38.06132,-30.2145 81.77029,-34.17021 114.98053,-10.40585 8.35958,5.98188 18.81947,17.58657 18.81947,20.87919 v 1.32997 l -2.6,-0.39101 c -1.43,-0.21506 -6.04499,-1.30625 -10.25554,-2.42486 -18.97612,-5.04138 -36.30963,-4.9491 -53.54446,0.28507 -10.29733,3.12727 -10.70976,5.8029 -0.57446,3.72679 27.54314,-5.64193 47.33562,-2.43443 65.17446,10.56195 l 3.4,2.47705 v 1.8732 c 0,5.437 -18.13175,17.89641 -31.62885,21.73408 L 216.4,440.97391 200,441.22189 c -9.02,0.13638 -17.3,0.0777 -18.4,-0.13032 z m 34.35778,-1.98483 C 229.54109,436.97744 251.2,423.99584 251.2,417.98379 v -1.86794 l -4.6,-2.76763 c -7.26795,-4.37283 -12.4618,-6.7943 -20.41033,-9.51569 l -7.38967,-2.53004 -9.2,0.0737 c -5.8167,0.0466 -12.7304,0.73023 -18.8,1.8589 -5.28,0.98185 -10.95,1.95342 -12.6,2.15906 l -3,0.37389 v -1.67268 c 0,-9.57039 40.80892,-13.26837 66.03045,-5.98348 8.81062,2.54483 9.3218,2.35699 6.13876,-2.25568 -16.5175,-23.93611 -55.5389,-36.37181 -86.16921,-27.46119 -15.67776,4.56079 -46.8,22.41751 -46.8,26.85199 0,6.77201 40.46117,35.46244 59.27823,42.03334 l 5.92177,2.06787 8.4,0.61155 c 9.424,0.68611 20.24557,0.35592 27.95778,-0.85304 z M 718.4,398.69009 c -21.01206,-3.06791 -45.22691,-16.13252 -49.63762,-26.78092 l -0.9987,-2.41107 1.54424,-2.14905 c 3.13801,-4.367 19.27014,-10.86182 32.21726,-12.97072 9.56397,-1.55783 27.36755,0.5364 41.0649,4.83045 6.00583,1.88279 6.92444,1.9574 5.38135,0.43707 -1.71571,-1.6904 -12.384,-5.77646 -20.08097,-7.69121 l -6.69046,-1.66437 -12.8,-0.4316 -12.8,-0.4316 -9.73605,1.28646 C 680.50912,351.42109 675.19912,352 674.06395,352 H 672 v -1.51291 c 0,-6.51573 27.16652,-24.83603 43.6,-29.40257 l 7.2,-2.00073 10.85831,-0.44869 c 20.08882,-0.83012 42.62217,7.0332 68.11718,23.77042 17.74951,11.65237 18.0897,13.54478 4.36183,24.26427 -29.88982,23.33968 -63.40842,35.5725 -87.73732,32.0203 z m 26.61236,-2.73337 c 25.49435,-5.19541 74.95058,-35.25379 69.26875,-42.09998 -5.95717,-7.17794 -39.38454,-26.05482 -54.70003,-30.88983 -28.14992,-8.88676 -58.17466,-0.82766 -81.05089,21.75531 -6.21768,6.13797 -6.17843,6.18022 4.45631,4.79761 4.85334,-0.63098 14.7251,-1.08401 22.6135,-1.03777 l 14,0.0821 7.43694,1.69053 c 12.53437,2.84924 24.16306,8.17646 24.16306,11.06934 0,1.58317 -2.81515,1.3062 -9.9808,-0.98194 -3.50943,-1.12064 -10.70943,-2.7778 -16,-3.68258 l -9.6192,-1.64506 -8.4,0.42251 -8.4,0.4225 -7.2,2.11251 c -9.60942,2.81943 -20.23048,7.98073 -21.31326,10.35716 l -0.84251,1.84913 1.25738,2.43152 c 6.48596,12.54246 34.31528,24.66116 57.17272,24.89674 l 9.07434,0.0935 z M 270.4,372.94059 C 244.77713,363.67418 224.45619,341.15942 216.48048,313.2 211.78879,296.75291 209.70625,258.72063 212.85557,247 l 0.8061,-3 h 2.06785 c 3.45123,0 18.30559,5.34854 28.81104,10.37387 49.23955,23.55393 70.38456,63.84547 56.17166,107.03435 -1.90221,5.78027 -3.28288,6.88826 -6.76109,5.42578 -13.64704,-5.73815 -31.28156,-31.27131 -37.59493,-54.434 -3.68652,-13.52525 -4.91865,-10.84057 -2.33531,5.0884 3.07714,18.97374 10.09508,34.87683 21.89418,49.61357 2.24671,2.80608 4.08493,5.77608 4.08493,6.6 V 375.2 l -1.8,-0.0448 c -0.99,-0.0246 -4.5,-1.02121 -7.8,-2.21465 z m 8,-0.0673 c 0,-0.39966 -1.57198,-2.65643 -3.49329,-5.01504 -1.92131,-2.35861 -5.66735,-7.5993 -8.32454,-11.64597 l -4.83125,-7.35759 -3.67654,-11.03155 c -4.21866,-12.6582 -5.72356,-19.77764 -6.5325,-30.90409 l -0.57297,-7.88091 1.51554,0.2914 1.51555,0.29141 3.29021,11.42726 c 9.64226,33.48865 37.16263,66.08892 42.24603,50.04409 15.61858,-49.29726 -14.56306,-94.44078 -76.23665,-114.02927 -9.89615,-3.14317 -10.48563,-2.07471 -10.49496,19.02238 -0.0208,47.01254 11.68538,76.30492 37.99537,95.07608 9.88694,7.05395 27.6,14.57032 27.6,11.7118 z m 256.06254,-9.3572 c -5.32097,-5.82199 -9.84833,-15.28881 -12.5853,-26.31613 l -2.18414,-8.8 0.0261,-8.8 0.026,-8.8 2.13278,-7.03066 c 4.83691,-15.94474 15.4528,-32.32965 31.85713,-49.16934 l 6.42937,-6.6 h 2.19377 c 9.36561,0 22.5494,52.71867 19.34786,77.36724 l -0.853,6.56725 -2.932,5.83275 c -4.12936,8.21475 -6.94039,12.13089 -13.80538,19.23276 -8.84048,9.14554 -9.9304,8.69329 -7.32763,-3.04053 0.87345,-3.93771 1.81396,-10.03947 2.09002,-13.55947 l 0.50192,-6.4 -1.3148,-7.6 c -1.71859,-9.93407 -4.31587,-19.52664 -5.78006,-21.34762 l -1.16781,-1.45238 0.33514,4.8 c 0.18433,2.64 0.98235,9.11777 1.77338,14.39503 l 1.43824,9.59504 -0.93668,6.47842 c -3.2828,22.70496 -11.46865,33.17799 -19.26491,24.64764 z m 8.6764,0.56961 c 3.12341,-4.38642 6.4238,-12.42288 8.12476,-19.78382 l 1.70547,-7.38047 -0.35672,-6.66073 c -0.1962,-3.66339 -1.0332,-11.06379 -1.86,-16.44531 l -1.50327,-9.78459 0.95651,-0.95651 0.9565,-0.9565 1.58586,1.43518 c 5.80655,5.25485 8.96099,33.00928 5.61679,49.41952 -0.89933,4.41312 -1.43394,8.22506 -1.18801,8.47099 1.61565,1.61565 14.96888,-15.14849 19.3108,-24.2435 l 3.43725,-7.2 0.76599,-8.05105 0.76598,-8.05105 -1.07839,-9.54895 C 578.37066,286.57015 573.75461,269.07892 567.35495,255 l -2.45461,-5.4 h -2.24403 -2.24403 l -5.73519,5.94345 c -15.7691,16.34172 -25.88125,31.81297 -31.14876,47.65655 l -2.2608,6.8 0.0385,10 0.0385,10 2.10641,7.89744 c 5.15463,19.32585 15.12813,32.59219 19.68809,26.1883 z M 646.4,317.69796 c 0,-0.82613 0.57786,-1.98163 1.28412,-2.56778 9.80783,-8.13977 21.91588,-42.17661 21.91588,-61.60752 0,-9.87243 -0.87701,-10.07585 -2.68897,-0.6237 -4.94682,25.80533 -10.88218,37.75006 -26.7029,53.73878 l -7.75538,7.83773 -2.42498,-0.23773 -2.42498,-0.23774 -1.84894,-5.2 c -17.8423,-50.18 10.88042,-101.03315 70.68612,-125.14876 10.24742,-4.1321 10.28102,-4.11395 12.0203,6.49296 7.29378,44.48052 -1.90021,83.99388 -24.8995,107.01145 C 670.96744,309.75899 646.4,323.33976 646.4,317.69796 Z m 10.19161,-3.29738 c 28.28275,-13.25374 46.39036,-37.97372 51.06647,-69.71445 l 1.33859,-9.08613 -0.47095,-20.4 c -0.71285,-30.879 -1.50735,-33.88248 -8.34985,-31.56541 -35.07308,11.8768 -68.33891,44.10743 -75.74585,73.38873 -4.19399,16.57978 -1.40692,49.42892 4.72201,55.65478 l 1.06131,1.07809 1.54718,-0.82802 c 2.86682,-1.53428 16.69676,-16.59695 20.37032,-22.18602 5.59718,-8.51574 9.50542,-19.82539 13.38801,-38.74215 l 2.21666,-10.8 h 1.12236 c 2.60366,0 2.83569,16.78418 0.40539,29.32488 -2.47869,12.79041 -9.2991,29.51124 -16.18345,39.67512 -5.72977,8.45929 -5.6865,8.51105 3.5118,4.20058 z M 366.11951,260.72279 C 355.2827,248.06242 348.84369,215.80497 353.2,196 c 1.37964,-6.27223 1.38912,-6.4 0.47465,-6.4 -1.12073,0 -5.34457,10.87066 -6.99398,18 L 345.2,214 l 0.0273,13.2 0.0272,13.2 3.41672,10.20524 c 4.74615,14.17605 3.9785,14.93869 -5.63151,5.59476 -13.32824,-12.95921 -20.80299,-26.11564 -25.22079,-44.39154 L 316.41485,206 l 0.0409,-12.4 0.0408,-12.4 2.22338,-9.6 c 2.87816,-12.42717 9.84097,-33.54687 13.95216,-42.31992 l 3.23157,-6.89601 1.84817,-0.6975 c 2.54695,-0.96123 3.85007,-0.15107 12.59107,7.82801 42.24092,38.5589 53.6564,83.4864 31.02237,122.09371 -7.03981,12.00794 -10.8297,14.27368 -15.24577,9.1145 z M 375.82925,258.2 c 29.99419,-37.80449 16.25877,-95.31322 -31.84661,-133.33833 l -4.19491,-3.31589 -1.69386,1.06559 c -4.02411,2.53152 -13.82046,28.39654 -18.55439,48.98863 l -2.20696,9.6 -0.0543,12 c -0.11362,25.12726 8.82728,46.20822 26.78118,63.14503 7.35566,6.93895 7.82022,6.20586 3.77806,-5.96197 L 344.52109,240.4 344.1904,229.2 343.85971,218 l 1.7134,-8.33803 c 2.73681,-13.3183 7.21773,-23.53776 9.37478,-21.3807 0.26341,0.26341 -0.11239,3.45788 -0.83512,7.09883 -4.16676,20.9912 1.24728,49.61294 12.18556,64.4199 3.40314,4.60678 4.7913,4.37374 9.53088,-1.6 z M 282.4,253.89009 C 252.31872,249.498 231.10977,225.32851 223.20162,186.42824 l -1.70192,-8.37177 0.833,-1.82823 0.833,-1.82824 h 4.67724 c 6.54133,0 20.87913,2.71808 28.95706,5.48952 26.24427,9.0041 41.39202,23.66289 45.61815,44.14562 2.96415,14.3663 2.16046,15.71384 -5.06344,8.48994 -7.75594,-7.75594 -29.64361,-21.65555 -37.95471,-24.10287 -3.7911,-1.11634 -1.50986,0.92074 4.81123,4.29628 20.79656,11.10564 34.18877,25.71908 34.18877,37.30643 v 2.05672 l -2.77431,1.15918 c -2.55944,1.06941 -8.38837,1.35556 -13.22569,0.64927 z m 13.17111,-2.17004 1.47691,-1.07994 -0.51906,-2.59531 C 294.0696,235.748 283.15641,224.45348 263.6,213.96522 c -8.00843,-4.29498 -8.84181,-5.06539 -7.22692,-6.6808 l 1.11523,-1.11558 4.65584,1.84664 c 9.85883,3.91029 26.8305,14.81459 35.1563,22.58791 l 5.35173,4.99661 -0.52929,-5.21372 c -3.00113,-29.56277 -28.03111,-49.11789 -69.59507,-54.37238 l -6.27219,-0.79293 -1.52781,0.81766 c -1.85228,0.99131 -1.88682,2.25745 -0.27813,10.1951 7.15636,35.31124 28.6766,61.44671 54.07179,65.66803 6.81899,1.13349 15.37571,1.04229 17.04963,-0.18171 z M 562,212.4739 c -10.84882,-2.48557 -12.5178,-4.2989 -9.49593,-10.31723 8.45957,-16.848 18.57777,-24.74159 47.09593,-36.74136 l 11.2,-4.71269 -6,0.42847 c -17.82023,1.27255 -35.31502,9.85679 -53.5157,26.25877 -8.07126,7.27361 -8.88429,6.37984 -5.69752,-6.26334 9.28214,-36.82597 42.45465,-59.62641 91.21322,-62.69352 23.66513,-1.48864 27.59084,-1.21334 28.82056,2.02107 l 0.69799,1.83585 -1.45295,5.05504 c -13.13285,45.69146 -38.20182,75.04648 -71.6656,83.91829 l -6.4,1.69674 -10,0.30682 c -6.66435,0.20447 -11.60111,-0.06 -14.8,-0.79291 z m 20,-0.54324 c 38.22458,-4.59139 67.83892,-35.57511 81.7185,-85.49722 l 1.32716,-4.7735 -1.02079,-1.22997 -1.02078,-1.22997 h -9.74213 c -58.72353,0 -95.5524,21.5692 -106.40719,62.31846 -2.49572,9.36901 -2.09747,10.03459 3.04082,5.082 16.67953,-16.07673 41.44744,-27.39412 59.96307,-27.39937 l 3.85866,-0.001 -0.25866,1.25673 c -0.15991,0.77696 -3.46542,2.45821 -8.65866,4.40398 -4.62,1.73099 -13.60512,5.70545 -19.96693,8.83215 l -11.56693,5.6849 -7.66091,7.71112 -7.66092,7.71112 -3.08366,5.92919 -3.08367,5.9292 1.51151,1.10604 c 2.58833,1.89399 13.20563,4.52466 19.91151,4.93351 0.88,0.0537 4.84,-0.29162 8.8,-0.76728 z m -82.02308,-24.2839 c -46.39599,-17.10014 -60.78714,-74.69244 -33.34058,-133.426456 6.54057,-13.996446 6.31111,-14.061353 28.48997,8.058952 L 512.4929,79.6 l 5.30853,8.001344 c 18.72886,28.229266 20.99112,57.418876 6.65621,85.884206 -3.82042,7.58633 -4.60576,7.12436 -5.84907,-3.44063 -2.23272,-18.97251 -12.54059,-39.81115 -28.92101,-58.46742 -4.18057,-4.76141 -3.58209,-2.87491 2.05017,6.46236 7.3109,12.12017 11.96614,22.02597 13.85798,29.48811 l 1.60429,6.32797 -0.0584,12.47203 c -0.0668,14.26319 -0.77977,20.69941 -2.40711,21.72945 -1.37295,0.86901 -1.25884,0.87886 -4.75757,-0.41066 z m 4.8073,-2.01728 c 0.46229,-0.86379 1.06218,-7.07379 1.33311,-13.8 0.88206,-21.89927 -1.62262,-30.49138 -15.66798,-53.74776 -12.02589,-19.912533 -0.73287,-11.19753 13.1018,10.11087 9.31679,14.34988 15.32246,29.86032 16.23527,41.92979 0.55499,7.3383 1.20942,7.81667 3.77291,2.75789 14.32013,-28.25943 11.4812,-58.97006 -8.00712,-86.618514 -5.64297,-8.00579 -36.8941,-39.565703 -39.93412,-40.3287 -7.22158,-1.812502 -20.5632,36.029478 -21.75875,61.716214 l -0.48635,10.44928 1.38711,8.29553 c 4.4463,26.59079 18.46709,47.05081 39.2399,57.26134 8.05747,3.96052 9.57267,4.23787 10.78422,1.97406 z"
         id="path7040" />
      <path
         style="display:inline;fill:#c2e432"
         d="m 188,439.95978 -8.4,-0.61155 -5.92177,-2.06787 C 154.86117,430.70946 114.4,402.01903 114.4,395.24702 c 0,-4.43448 31.12224,-22.2912 46.8,-26.85199 30.63031,-8.91062 69.65171,3.52508 86.16921,27.46119 3.18304,4.61267 2.67186,4.80051 -6.13876,2.25568 C 216.00892,390.82701 175.2,394.52499 175.2,404.09538 v 1.67268 l 3,-0.37389 c 1.65,-0.20564 7.32,-1.17721 12.6,-2.15906 6.0696,-1.12867 12.9833,-1.81228 18.8,-1.8589 l 9.2,-0.0737 7.38967,2.53004 c 7.94853,2.72139 13.14238,5.14286 20.41033,9.51569 l 4.6,2.76763 v 1.86794 c 0,1.23736 -1.41783,3.15115 -4.2,5.66915 -14.92682,13.50952 -32.12662,18.26332 -59,16.30684 z m 526.71411,-43.2303 c -16.6628,-2.7873 -39.43435,-15.26657 -44.0125,-24.11974 l -1.25738,-2.43152 0.84251,-1.84913 c 1.08278,-2.37643 11.70384,-7.53773 21.31326,-10.35716 l 7.2,-2.11251 8.4,-0.4225 8.4,-0.42251 9.6192,1.64506 c 5.29057,0.90478 12.49057,2.56194 16,3.68258 7.16565,2.28814 9.9808,2.56511 9.9808,0.98194 0,-2.89288 -11.62869,-8.2201 -24.16306,-11.06934 l -7.43694,-1.69053 -14,-0.0821 c -7.8884,-0.0462 -17.76016,0.40679 -22.6135,1.03777 -10.63474,1.38261 -10.67399,1.34036 -4.45631,-4.79761 22.87623,-22.58297 52.90097,-30.64207 81.05089,-21.75531 15.31549,4.83501 48.74286,23.71189 54.70003,30.88983 5.68183,6.84619 -43.7744,36.90457 -69.26875,42.09998 l -8.06369,1.64328 -9.07434,-0.0935 c -4.99088,-0.0514 -10.91298,-0.40109 -13.16022,-0.777 z M 535.19767,362.60751 c -4.41818,-5.01931 -9.14937,-14.97162 -11.74682,-24.71004 L 521.34444,330 l -0.0385,-10 -0.0385,-10 2.2608,-6.8 c 5.26751,-15.84358 15.37966,-31.31483 31.14876,-47.65655 L 560.41228,249.6 h 2.24403 2.24403 l 2.45461,5.4 c 6.39966,14.07892 11.01571,31.57015 13.02351,49.34895 l 1.07839,9.54895 -0.76598,8.05105 -0.76599,8.05105 -3.43725,7.2 c -4.34192,9.09501 -17.69515,25.85915 -19.3108,24.2435 -0.24593,-0.24593 0.28868,-4.05787 1.18801,-8.47099 3.3442,-16.41024 0.18976,-44.16467 -5.61679,-49.41952 l -1.58586,-1.43518 -0.9565,0.9565 -0.95651,0.95651 1.50327,9.78459 c 0.8268,5.38152 1.6638,12.78192 1.86,16.44531 l 0.35672,6.66073 -1.70547,7.38047 c -4.35155,18.83145 -9.96909,25.23205 -16.06603,18.30556 z M 653.07981,310.2 c 6.88435,-10.16388 13.70476,-26.88471 16.18345,-39.67512 2.4303,-12.5407 2.19827,-29.32488 -0.40539,-29.32488 h -1.12236 l -2.21666,10.8 c -3.88259,18.91676 -7.79083,30.22641 -13.38801,38.74215 -3.67356,5.58907 -17.5035,20.65174 -20.37032,22.18602 l -1.54718,0.82802 -1.06131,-1.07809 c -6.12893,-6.22586 -8.916,-39.075 -4.72201,-55.65478 7.40694,-29.2813 40.67277,-61.51193 75.74585,-73.38873 6.8425,-2.31707 7.637,0.68641 8.34985,31.56541 l 0.47095,20.4 -1.33859,9.08613 c -4.67611,31.74073 -22.78372,56.46071 -51.06647,69.71445 -9.1983,4.31047 -9.24157,4.25871 -3.5118,-4.20058 z M 278.52148,251.90176 c -25.39519,-4.22132 -46.91543,-30.35679 -54.07179,-65.66803 -1.60869,-7.93765 -1.57415,-9.20379 0.27813,-10.1951 l 1.52781,-0.81766 6.27219,0.79293 c 41.56396,5.25449 66.59394,24.80961 69.59507,54.37238 l 0.52929,5.21372 -5.35173,-4.99661 c -8.3258,-7.77332 -25.29747,-18.67762 -35.1563,-22.58791 l -4.65584,-1.84664 -1.11523,1.11558 c -1.61489,1.61541 -0.78151,2.38582 7.22692,6.6808 19.55641,10.48826 30.4696,21.78278 32.92896,34.07958 l 0.51906,2.59531 -1.47691,1.07994 c -1.67392,1.224 -10.23064,1.3152 -17.04963,0.18171 z m 289.05976,-39.89211 c -5.38895,-0.79215 -12.43302,-2.88438 -14.29275,-4.24522 l -1.51151,-1.10604 3.08367,-5.9292 3.08366,-5.92919 7.66092,-7.71112 7.66091,-7.71112 11.56693,-5.6849 c 6.36181,-3.1267 15.34693,-7.10116 19.96693,-8.83215 5.19324,-1.94577 8.49875,-3.62702 8.65866,-4.40398 l 0.25866,-1.25673 -3.85866,0.001 c -18.51563,0.005 -43.28354,11.32264 -59.96307,27.39937 -5.13829,4.95259 -5.53654,4.28701 -3.04082,-5.082 C 557.70956,140.7692 594.53843,119.2 653.26196,119.2 h 9.74213 l 1.02078,1.22997 1.02079,1.22997 -1.32716,4.7735 c -13.87958,49.92211 -43.49392,80.90583 -81.7185,85.49722 -7.86214,0.94437 -8.50762,0.9479 -14.41876,0.079 z"
         id="path7039"
         sodipodi:nodetypes="ccsssssscssscsscssscsscsscccsssscsssssscssssscccsscccsscccsssscccsscsssssscssscsssscsssssscsscsscssscsssscccccssscsssscccssss" />
      <path
         style="display:inline;fill:#92a48e"
         d="m 368.81396,239.67536 c -10.93828,-14.80696 -16.35232,-43.4287 -12.18556,-64.4199 0.72273,-3.64095 1.09853,-6.83542 0.83512,-7.09883 -2.15705,-2.15706 -6.63797,8.0624 -9.37478,21.3807 l -1.7134,8.33803 0.33069,11.2 0.33069,11.2 3.31637,9.98306 c 4.04216,12.16783 3.5776,12.90092 -3.77806,5.96197 -17.9539,-16.93681 -26.8948,-38.01777 -26.78118,-63.14503 l 0.0543,-12 2.20696,-9.6 c 4.73393,-20.59209 14.53028,-46.45711 18.55439,-48.98863 l 1.69386,-1.06559 4.19491,3.31589 c 48.10538,38.02511 61.8408,95.53384 31.84661,133.33833 -4.73958,5.97374 -6.12774,6.20678 -9.53088,1.6 z"
         id="path7038"
         sodipodi:nodetypes="sssscccssccsscssss" />
      <path
         style="display:none;fill:#698d93"
         d="M 489.6,933.04808 C 460.22209,930.82524 449.54852,930.4 423.1324,930.4 c -18.85434,0 -36.57091,0.46101 -47.92263,1.247 -9.90537,0.68585 -20.34977,1.13585 -23.20977,1 l -5.2,-0.247 -0.23734,-4.07106 c -0.30675,-5.26174 -0.11262,-5.38604 11.43734,-7.32365 34.48124,-5.78454 34.47601,-5.76305 35.19744,-144.60529 0.53965,-103.85755 1.31143,-143.27395 3.24251,-165.6 7.09772,-82.05999 -44.95502,-165.32116 -142.64722,-228.17193 -4.514,-2.90411 -8.05707,-5.4304 -7.87348,-5.61399 0.18359,-0.18358 6.75686,3.9725 14.60727,9.23576 95.40447,63.96323 143.77896,143.70052 136.71395,225.35016 -1.93325,22.34238 -2.70432,61.78744 -3.23713,165.6 C 393.29419,915.37092 393.16905,915.8736 358,921.81721 347.40851,923.60718 347.09148,923.8039 347.39127,928.4 l 0.20873,3.2 4.8,0.24827 c 2.64,0.13655 12.9044,-0.31345 22.80977,-1 23.3146,-1.61595 72.2072,-1.66303 93.99023,-0.0905 8.8,0.63527 18.7,1.26466 22,1.39864 l 6,0.2436 0.23893,-4.11693 0.23892,-4.11694 -5.03892,-0.57611 C 452.40225,918.98967 451.44447,914.93998 449.59674,741.6 448.22196,612.6278 450.62262,578.43858 463.98924,536.62793 490.02246,455.19625 567.8033,378.22298 672.89263,329.89351 685.9936,323.86852 686.37759,323.63903 682,324.45046 611.09853,337.5928 504.49782,405.14171 466.50758,461 c -1.60018,2.35281 -3.17915,3.8 -4.14601,3.8 H 460.8 v -1.91194 c 0,-10.46061 16.89981,-72.27009 38.43065,-140.55646 14.62526,-46.38494 22.44419,-74.14907 27.60813,-98.03337 3.80194,-17.58477 7.717,-43.94063 5.61693,-37.81273 -1.68041,4.90336 -15.75071,42.22268 -19.88791,52.74967 -2.84565,7.24066 -11.67406,27.76555 -19.61869,45.61088 -18.81567,42.26397 -26.87988,61.71153 -39.6815,95.6955 -1.18955,3.15786 -2.6814,6.17194 -3.31522,6.69796 l -1.15239,0.9564 -1.17959,-0.97898 c -0.64878,-0.53843 -3.0479,-4.09251 -5.33138,-7.89795 -23.33882,-38.89434 -51.28972,-68.98477 -98.91492,-106.48647 -10.68157,-8.41102 -9.82704,-7.17103 7.97159,11.56749 42.87837,45.14263 62.59879,73.03377 79.47237,112.4 8.72253,20.34974 8.94646,23.18014 3.21792,40.67353 -7.96661,24.32784 -12.42097,41.37374 -21.14528,80.91852 l -1.32196,5.99206 -1.32778,0.2557 -1.32778,0.25571 -5.60989,-11.44776 c -20.34273,-41.51217 -49.48653,-74.93698 -88.25379,-101.21762 -18.05425,-12.23913 -66.87256,-37.42278 -69.45265,-35.8282 -0.4227,0.26124 -2.12491,-0.47984 -3.7827,-1.64684 l -3.01416,-2.12183 2.3047,0.52489 c 3.1577,0.71915 20.30208,8.34987 32.8953,14.64125 62.93551,31.44158 101.19494,68.07882 129.2,123.72197 8.01869,15.93231 6.43743,17.72908 14.01178,-15.92138 4.36922,-19.41107 9.81511,-39.16558 16.02421,-58.12647 5.80883,-17.73855 5.51205,-20.7705 -4.17696,-42.67353 -16.64577,-37.62956 -34.9804,-63.82308 -72.13199,-103.05047 -30.23218,-31.92135 -31.63362,-33.71869 -18.44193,-23.6514 50.32563,38.40616 84.22058,74.68075 106.22714,113.68497 4.42998,7.85164 4.29138,7.96526 10.56704,-8.6621 11.62043,-30.78831 19.95154,-50.66069 40.7161,-97.121 12.79081,-28.61919 20.77022,-48.57334 34.79417,-87.00997 5.13352,-14.06989 5.30627,-13.07766 1.61441,9.27309 -5.88003,35.59804 -12.60649,61.37673 -32.37332,124.06848 -18.95275,60.1098 -31.3149,104.06144 -36.88964,131.15511 -2.70761,13.15919 -2.20056,13.39837 5.75198,2.71329 20.63927,-27.73102 68.64193,-68.01281 107.50701,-90.2153 31.848,-18.19383 89.75683,-40.81534 112.4,-43.90794 l 3.6,-0.49169 -4,1.99681 c -2.2,1.09825 -9.51635,4.50807 -16.25855,7.57738 -86.5802,39.41466 -159.97579,104.52083 -193.60072,171.73515 -25.49304,50.95915 -29.74185,86.94965 -28.13281,238.30559 1.83311,172.43387 2.41023,175.08208 39.47358,181.1309 l 8.1185,1.32495 0.24612,4.29636 0.24612,4.29636 -1.04612,0.66346 c -0.57537,0.36491 -1.76612,0.60609 -2.64612,0.53595 -0.88,-0.0701 -3.22,-0.25009 -5.2,-0.3999 z M 674.8,932.278 c -31.33007,-2.47734 -59.75041,-14.19137 -75.56115,-31.14408 -7.33656,-7.86646 -33.94241,-40.01566 -45.6274,-55.13392 -5.44126,-7.04 -16.2425,-20.72 -24.00274,-30.4 -7.76025,-9.68 -19.1887,-24.26 -25.39656,-32.4 -6.20787,-8.14 -16.54372,-21.21613 -22.96857,-29.05807 -15.33852,-18.72164 -15.14692,-18.44934 -14.54937,-20.67759 0.27498,-1.02539 3.65127,-5.46781 7.50288,-9.87206 86.25297,-98.62884 109.36435,-128.96689 110.3967,-144.91652 l 0.42229,-6.52424 -1.81421,-3.74765 C 579.98275,561.75404 571.09987,557.6 560.09922,557.6 c -5.58618,0 -9.72529,-7.51175 -5.5582,-10.08715 0.66728,-0.41241 123.98578,-0.74969 129.65898,-0.35463 0.33,0.023 0.6,2.1879 0.6,4.81094 v 4.76917 l -3,0.76642 c -1.65,0.42154 -4.62,1.00836 -6.6,1.30406 -30.10403,4.49582 -48.10449,20.4368 -118.32965,104.79119 -37.32742,44.83766 -37.08821,44.52388 -36.0453,47.28185 1.48445,3.92562 34.58309,46.7678 80.28421,103.91815 64.65598,80.85388 81.11511,95.73025 115.2557,104.17242 8.60867,2.12873 10.03504,3.12762 10.03504,7.02758 0,1.37181 -0.45,3.0853 -1,3.80777 l -1,1.31357 -19.76906,0.83933 C 685.4874,932.77344 681.58997,932.8149 674.8,932.278 Z m 29.81938,-1.13568 19.75749,-0.85768 0.59931,-0.94232 c 0.76885,-1.20888 0.77628,-5.47313 0.0116,-6.6364 -0.32326,-0.49175 -4.2524,-1.8123 -8.73142,-2.93456 -20.11744,-5.04063 -37.2411,-15.06614 -53.36972,-31.24674 C 642.97162,868.54543 573.76778,783.75464 533.50332,730 521.0557,713.38194 519.8,711.48602 519.8,709.31003 v -1.98916 l 9.08655,-11.06043 C 626.8809,576.97854 640.95746,563.86637 678,557.36281 l 5.6,-0.98319 v -4.26659 -4.26658 l -64.19122,-0.12322 -64.19123,-0.12323 -0.40877,1.06543 c -2.17316,5.66408 -0.12901,7.78971 8.06911,8.39074 16.30979,1.19572 23.46821,8.21401 22.51573,22.07498 l -0.41703,6.06885 -2.48447,6.4 c -3.89433,10.03181 -42.56513,57.64383 -108.76792,133.91659 -8.23779,9.49083 -8.79155,7.35528 6.8758,26.5161 7.37,9.01334 17.9,22.30016 23.4,29.52627 5.5,7.22611 15.77501,20.36148 22.83336,29.18971 7.05835,8.82823 18.10174,22.89133 24.54088,31.25133 12.6625,16.43987 37.30879,46.44982 46.70671,56.87127 14.39742,15.96546 40.39597,28.30372 66.31905,31.47335 14.61997,1.7876 16.53926,1.82566 40.21938,0.7977 z"
         id="path7037" />
      <path
         style="fill:#a2c616"
         d="m 282.30478,516.79513 c -22.914,-3.62638 -47.57267,-21.39114 -40.18164,-28.9479 26.63984,-27.23716 62.04799,-33.1565 90.4753,-15.12516 7.40412,4.6964 7.44485,4.64236 -3.19844,4.24425 -16.75267,-0.62664 -41.74735,6.37824 -45.71434,12.81166 l -0.8497,1.37798 0.91149,0.91149 0.91149,0.91149 7.47053,-2.45154 c 19.69265,-6.46237 34.87624,-6.74033 46.42255,-0.84985 6.69373,3.41489 -6.23874,17.57376 -23.10395,25.29491 l -4.58294,2.09814 -12.03257,0.21798 c -6.61791,0.11988 -14.05541,-0.10217 -16.52778,-0.49345 z m 329.30338,-50.802 c -16.11664,-3.35204 -31.73827,-13.50252 -41.11002,-26.71209 l -2.49659,-3.51896 0.94897,-1.14345 c 7.60907,-9.16837 45.80071,-10.8212 68.89836,-2.98174 13.92151,4.72503 9.98981,-0.90771 -5.484,-7.85664 -14.82661,-6.65829 -22.64494,-8.18538 -41.77197,-8.15899 -9.9613,0.0138 -15.31249,-0.26251 -15.13947,-0.78157 1.4524,-4.35722 23.19812,-16.25834 34.46396,-18.86164 l 7.67565,-1.77368 14.60348,0.40809 14.60347,0.40809 6,1.73806 c 12.95269,3.7521 36.95389,18.66901 52.79977,32.81543 l 3.59978,3.2137 -0.8419,1.40613 c -2.45087,4.0934 -29.36785,20.03994 -43.95765,26.04201 -12.1451,4.99636 -18.33861,6.19668 -34,6.58934 l -13.2,0.33094 z M 270.74552,370.91172 c -27.21167,-10.11739 -47.88103,-35.06083 -53.84042,-64.97369 -3.70282,-18.58613 -4.48095,-56.35995 -1.22599,-59.51501 1.04207,-1.0101 18.10633,4.80578 27.74667,9.45668 45.49475,21.94854 67.22957,58.98534 57.41299,97.83348 -3.24119,12.8267 -3.49719,13.06428 -9.64945,8.95522 -12.54867,-8.38118 -26.38273,-28.20293 -30.89595,-44.2684 -5.32774,-18.96491 -6.5196,-21.59068 -9.0815,-20.00734 l -1.04303,0.64463 0.57447,7.88135 c 1.72242,23.63064 9.23689,43.63156 22.6005,60.15469 5.10663,6.31399 4.89619,6.62486 -2.59829,3.83839 z M 497.38099,184.46259 C 477.08935,176.11826 461.75918,155.96227 456.26227,130.4 l -1.46227,-6.8 0.0576,-12.8 0.0576,-12.8 1.78399,-8.4 c 2.35823,-11.103889 7.35656,-25.80253 11.96988,-35.2 l 3.73092,-7.6 1.63127,-0.233529 1.63126,-0.23353 11.68221,10.806552 c 27.56634,25.500072 39.39552,43.758247 43.53704,67.198837 l 1.28301,7.26167 -0.49501,8.00452 c -0.54863,8.87184 -2.58196,18.2952 -5.52285,25.59548 -4.10869,10.19914 -5.34693,11.60072 -5.34693,6.0523 0,-14.74364 -11.45703,-39.02158 -27.51235,-58.29983 -6.11723,-7.34521 -7.21895,-8.0532 -8.75135,-5.62384 l -0.77801,1.23339 6.42702,10.71899 c 13.64906,22.76392 16.0627,31.04726 15.12745,51.91575 -0.75679,16.88659 -0.43513,16.3486 -7.93177,13.26583 z"
         id="path7036" />
      <path
         style="fill:#677b52"
         d="m 379.6392,436.56536 c -1.03002,-2.32904 -2.6809,-6.73904 -3.66863,-9.8 L 374.17471,421.2 373.79723,410.68693 c -0.21857,-6.08746 0.0248,-13.32802 0.5781,-17.2 0.52557,-3.67781 1.15294,-8.21693 1.39416,-10.08693 l 0.43859,-3.4 h -1.25867 c -7.25129,0 -13.68508,34.80336 -9.4649,51.2 l 1.54429,6 -2.9144,-3.37716 c -4.21537,-4.88471 -11.17021,-16.20755 -13.5221,-22.01468 L 348.56399,406.8 348.1713,397.37864 c -0.87175,-20.91508 3.39079,-35.18029 17.55679,-58.75626 4.95265,-8.24252 4.95615,-8.24431 8.81446,-4.51422 9.16481,8.86023 20.02596,27.73493 24.33618,42.29184 l 2.13188,7.2 0.0768,12.4 0.0768,12.4 -1.45116,5.2 c -4.80074,17.2027 -16.63483,30.74146 -20.07379,22.96536 z M 447.63671,304.67638 C 411.46358,285.94036 403.77039,236.61611 429.40731,187.8 c 4.65134,-8.85678 4.32725,-8.90719 15.41342,2.39751 17.84528,18.19705 28.0558,34.40617 32.9487,52.30575 L 479.6,249.2 v 13.2 13.2 l -1.85199,6 c -1.82815,5.92274 -7.96914,19.20105 -8.87916,19.19888 -0.25787,-6.1e-4 -0.53454,-2.79061 -0.61483,-6.2 -0.42436,-18.01987 -9.28179,-39.54569 -22.73076,-55.24153 -5.64707,-6.59051 -7.55975,-2.89951 -2.66652,5.14573 9.81057,16.13013 12.31689,24.30252 12.84901,41.89692 0.63743,21.07678 0.0233,22.46783 -8.06904,18.27638 z"
         id="path7035" />
      <path
         style="fill:#295e68"
         d="m 489.6,932.26429 c -38.28311,-3.06905 -82.62176,-3.61791 -114.39023,-1.41602 -9.90537,0.68655 -20.16977,1.13655 -22.80977,1 l -4.8,-0.24827 -0.20873,-3.2 c -0.29979,-4.5961 0.0172,-4.79282 10.60873,-6.58279 21.47492,-3.62928 28.2423,-9.64475 32.37352,-28.7765 2.87066,-13.29408 3.14912,-22.18097 3.62982,-115.84071 0.53281,-103.81256 1.30388,-143.25762 3.23713,-165.6 7.07003,-81.7076 -41.17378,-161.19883 -136.79692,-225.4 -8.3557,-5.61 -14.90408,-10.2 -14.55196,-10.2 2.34544,0 38.60406,17.81823 52.43534,25.7678 46.19829,26.55262 81.84344,64.47401 104.97637,111.67996 l 5.60989,11.44776 1.32778,-0.25571 1.32778,-0.2557 1.32196,-5.99206 c 8.72431,-39.54478 13.17867,-56.59068 21.14528,-80.91852 5.72854,-17.49339 5.50461,-20.32379 -3.21792,-40.67353 -16.87358,-39.36623 -36.594,-67.25737 -79.47237,-112.4 -17.79863,-18.73852 -18.65316,-19.97851 -7.97159,-11.56749 47.6252,37.5017 75.5761,67.59213 98.91492,106.48647 2.28348,3.80544 4.6826,7.35952 5.33138,7.89795 l 1.17959,0.97898 1.15239,-0.9564 c 0.63382,-0.52602 2.12567,-3.5401 3.31522,-6.69796 12.80162,-33.98397 20.86583,-53.43153 39.6815,-95.6955 7.94463,-17.84533 16.77304,-38.37022 19.61869,-45.61088 4.1372,-10.52699 18.2075,-47.84631 19.88791,-52.74967 2.10007,-6.1279 -1.81499,20.22796 -5.61693,37.81273 -5.16394,23.8843 -12.98287,51.64843 -27.60813,98.03337 C 477.69981,390.61797 460.8,452.42745 460.8,462.88806 V 464.8 h 1.56157 c 0.96686,0 2.54583,-1.44719 4.14601,-3.8 C 504.49782,405.14171 611.09853,337.5928 682,324.45046 c 4.37759,-0.81143 3.9936,-0.58194 -9.10737,5.44305 C 567.8033,378.22298 490.02246,455.19625 463.98924,536.62793 450.62262,578.43858 448.22196,612.6278 449.59674,741.6 c 1.84773,173.33998 2.80551,177.38967 43.04219,181.99002 l 5.03892,0.57611 -0.23892,4.11694 L 497.2,932.4 l -2,0.0765 c -1.1,0.042 -3.62,-0.0534 -5.6,-0.21216 z M 674.8,931.478 C 642.34312,928.91156 614.49894,917.07737 598.08095,898.87127 588.68303,888.44982 564.03674,858.43987 551.37424,842 544.9351,833.64 533.89171,819.5769 526.83336,810.74867 519.77501,801.92044 509.5,788.78507 504,781.55896 498.5,774.33285 487.97,761.04603 480.6,752.03269 464.93265,732.87187 465.48641,735.00742 473.7242,725.51659 539.92699,649.24383 578.59779,601.63181 582.49212,591.6 l 2.48447,-6.4 0.41703,-6.06885 c 0.95248,-13.86097 -6.20594,-20.87926 -22.51573,-22.07498 -8.19812,-0.60103 -10.24227,-2.72666 -8.06911,-8.39074 l 0.40877,-1.06543 64.19123,0.12323 64.19122,0.12322 v 4.26658 4.26659 l -5.6,0.98319 c -37.04254,6.50356 -51.1191,19.61573 -149.11345,138.89763 L 519.8,707.32087 v 1.98916 c 0,2.17599 1.2557,4.07191 13.70332,20.68997 40.26446,53.75464 109.4683,138.54543 129.38329,158.52462 16.12862,16.1806 33.25228,26.20611 53.36972,31.24674 4.47902,1.12226 8.40816,2.44281 8.73142,2.93456 0.76471,1.16327 0.75728,5.42752 -0.0116,6.6364 l -0.59931,0.94232 -19.75749,0.85768 c -19.12196,0.83009 -23.01285,0.87389 -29.81938,0.33568 z"
         id="path7034" />
    </g>
  </g>
</svg>
